<svg width="128" height="128" viewBox="0 0 128 128" fill="none" xmlns="http://www.w3.org/2000/svg">
<g clip-path="url(#clip0_101_40)">
<path d="M17.8001 0.274994C15.7001 0.624992 12.8001 1.675 10.7501 2.825C8.17507 4.24999 4.25007 8.175 2.82507 10.75C-3.44993 22 1.32507 36.075 13.1251 40.975C15.7251 42.075 17.6001 42.45 21.7501 42.725C25.8001 43.025 27.5501 43.4 30.1501 44.625C32.8001 45.85 34.6751 47.2 36.9001 49.575C38.5001 51.25 39.2001 52.25 40.2251 54.275C42.0251 57.9 42.5501 60.1 42.5501 64C42.5501 67.9 42.0251 70.1 40.2251 73.725C37.6001 78.925 32.5001 83.1 26.8751 84.6C26.0501 84.825 23.7001 85.125 21.6751 85.275C17.4751 85.55 15.1001 86.1 12.3751 87.35C0.950071 92.625 -3.42493 106.725 3.00007 117.525C5.22507 121.3 9.52507 124.95 13.5001 126.475C19.0001 128.6 24.9001 128.45 30.1751 126C35.0001 123.775 38.4751 120.3 40.6501 115.625C42.1001 112.475 42.5001 110.475 42.7501 104.75C43.0001 99.4 43.4001 96.175 44.2501 92.525C47.1251 80.3 52.7001 70.25 61.4751 61.5C70.1501 52.825 80.1751 47.225 92.0001 44.375C96.0751 43.4 99.2001 43 104.75 42.75C110.5 42.5 112.65 42.075 115.725 40.625C120.375 38.4 123.775 34.95 126 30.175C127.5 26.95 127.875 25.15 127.85 21.25C127.85 17.625 127.45 15.6 126.125 12.625C124.75 9.49999 121.875 5.99999 118.875 3.85C114.575 0.749992 108.225 -0.650009 102.875 0.374992C94.6501 1.925 88.0501 8.05 86.0251 16.05C85.7501 17.125 85.4001 19.65 85.2751 21.675C85.1251 23.7 84.8251 26.05 84.6001 26.875C83.1001 32.5 78.8251 37.7 73.6751 40.25C70.0501 42.025 67.8501 42.55 64.0001 42.55C61.6001 42.55 60.4001 42.425 58.8751 42.025C54.9251 40.975 51.5251 38.975 48.7251 36.075C46.7501 34.05 45.7251 32.575 44.6251 30.175C43.4001 27.525 43.0251 25.8 42.7251 21.675C42.4501 17.475 41.9001 15.1 40.6501 12.375C38.4501 7.62499 34.5251 3.85 29.5501 1.64999C26.3501 0.249992 21.4501 -0.324997 17.8001 0.274994Z" fill="#0891B2"/>
<path d="M87.75 59.1C80.25 60.45 74.1 63.625 68.875 68.875C64 73.725 60.775 79.7 59.325 86.5C58.75 89.175 58.7 96.95 59.225 99.625C61.975 113.75 72.8 124.6 86.925 127.425C90.025 128.025 96.825 128.025 99.75 127.425C113.95 124.425 124.15 114.35 127.3 100.225C128.05 96.85 128.1 90.35 127.425 86.925C124.675 73.125 114.5 62.65 100.75 59.45C97.975 58.8 90.5 58.6 87.75 59.1Z" fill="#0891B2"/>
</g>
<defs>
<clipPath id="clip0_101_40">
<rect width="128" height="128" fill="white"/>
</clipPath>
</defs>
</svg>
