<svg width="128" height="128" viewBox="0 0 128 128" fill="none" xmlns="http://www.w3.org/2000/svg">
<g clip-path="url(#clip0_101_38)">
<path d="M17.7999 0.274994C15.7 0.624992 12.7999 1.675 10.7499 2.825C8.17495 4.24999 4.24995 8.175 2.82495 10.75C-3.45005 22 1.32495 36.075 13.1249 40.975C15.7249 42.075 17.6 42.45 21.75 42.725C25.7999 43.025 27.5499 43.4 30.1499 44.625C32.7999 45.85 34.6749 47.2 36.8999 49.575C38.5 51.25 39.1999 52.25 40.2249 54.275C42.0249 57.9 42.5499 60.1 42.5499 64C42.5499 67.9 42.0249 70.1 40.2249 73.725C37.5999 78.925 32.5 83.1 26.8749 84.6C26.0499 84.825 23.6999 85.125 21.6749 85.275C17.475 85.55 15.0999 86.1 12.3749 87.35C0.949949 92.625 -3.42505 106.725 2.99995 117.525C5.22495 121.3 9.52495 124.95 13.4999 126.475C19 128.6 24.8999 128.45 30.1749 126C35 123.775 38.4749 120.3 40.6499 115.625C42.0999 112.475 42.5 110.475 42.75 104.75C43 99.4 43.3999 96.175 44.25 92.525C47.125 80.3 52.7 70.25 61.475 61.5C70.15 52.825 80.1749 47.225 92 44.375C96.075 43.4 99.2 43 104.75 42.75C110.5 42.5 112.65 42.075 115.725 40.625C120.375 38.4 123.775 34.95 126 30.175C127.5 26.95 127.875 25.15 127.85 21.25C127.85 17.625 127.45 15.6 126.125 12.625C124.75 9.49999 121.875 5.99999 118.875 3.85C114.575 0.749992 108.225 -0.650009 102.875 0.374992C94.65 1.925 88.0499 8.05 86.025 16.05C85.75 17.125 85.4 19.65 85.275 21.675C85.125 23.7 84.825 26.05 84.6 26.875C83.1 32.5 78.825 37.7 73.6749 40.25C70.0499 42.025 67.85 42.55 64 42.55C61.6 42.55 60.4 42.425 58.875 42.025C54.925 40.975 51.5249 38.975 48.7249 36.075C46.75 34.05 45.7249 32.575 44.625 30.175C43.3999 27.525 43.0249 25.8 42.7249 21.675C42.4499 17.475 41.8999 15.1 40.6499 12.375C38.4499 7.62499 34.5249 3.85 29.5499 1.64999C26.3499 0.249992 21.4499 -0.324997 17.7999 0.274994Z" fill="#18181B"/>
<path d="M87.75 59.1C80.25 60.45 74.1 63.625 68.875 68.875C64 73.725 60.775 79.7 59.325 86.5C58.75 89.175 58.7 96.95 59.225 99.625C61.975 113.75 72.8 124.6 86.925 127.425C90.025 128.025 96.825 128.025 99.75 127.425C113.95 124.425 124.15 114.35 127.3 100.225C128.05 96.85 128.1 90.35 127.425 86.925C124.675 73.125 114.5 62.65 100.75 59.45C97.975 58.8 90.5 58.6 87.75 59.1Z" fill="#18181B"/>
</g>
<defs>
<clipPath id="clip0_101_38">
<rect width="128" height="128" fill="white"/>
</clipPath>
</defs>
</svg>
