<svg width="128" height="128" viewBox="0 0 128 128" fill="none" xmlns="http://www.w3.org/2000/svg">
<g clip-path="url(#clip0_101_37)">
<path d="M100.499 0H27.4286C12.2802 0 0 12.2802 0 27.4286V100.527C0 115.675 12.2802 127.955 27.4286 127.955H100.499C115.647 127.955 127.927 115.675 127.927 100.527V27.4286C127.927 12.2802 115.647 0 100.499 0Z" fill="#0891B2"/>
<path d="M37.585 27.5634C36.385 27.7634 34.7279 28.3634 33.5564 29.0206C32.085 29.8349 29.8422 32.0777 29.0279 33.5491C25.4422 39.9777 28.1707 48.0206 34.9136 50.8206C36.3993 51.4491 37.4707 51.6634 39.8422 51.8206C42.1564 51.992 43.1564 52.2063 44.6422 52.9063C46.1564 53.6063 47.2279 54.3777 48.4993 55.7349C49.4136 56.692 49.8136 57.2634 50.3993 58.4206C51.4279 60.492 51.7279 61.7491 51.7279 63.9777C51.7279 66.2063 51.4279 67.4634 50.3993 69.5349C48.8993 72.5063 45.985 74.892 42.7707 75.7491C42.2993 75.8777 40.9564 76.0491 39.7993 76.1348C37.3993 76.292 36.0422 76.6063 34.485 77.3206C27.9564 80.3349 25.4564 88.392 29.1279 94.5634C30.3993 96.7206 32.8564 98.8063 35.1279 99.6777C38.2707 100.892 41.6422 100.806 44.6564 99.4063C47.4136 98.1348 49.3993 96.1491 50.6422 93.4777C51.4707 91.6777 51.6993 90.5349 51.8422 87.2634C51.985 84.2063 52.2136 82.3634 52.6993 80.2777C54.3422 73.292 57.5279 67.5491 62.5422 62.5491C67.4994 57.592 73.2279 54.392 79.9851 52.7634C82.3136 52.2063 84.0994 51.9777 87.2708 51.8349C90.5565 51.692 91.7851 51.4491 93.5422 50.6206C96.1994 49.3491 98.1422 47.3777 99.4136 44.6491C100.271 42.8063 100.485 41.7777 100.471 39.5491C100.471 37.4777 100.242 36.3206 99.4851 34.6206C98.6994 32.8349 97.0565 30.8349 95.3422 29.6063C92.8851 27.8349 89.2565 27.0349 86.1994 27.6206C81.4994 28.5063 77.7279 32.0063 76.5708 36.5777C76.4136 37.192 76.2136 38.6349 76.1422 39.792C76.0565 40.9491 75.8851 42.292 75.7565 42.7634C74.8994 45.9777 72.4565 48.9491 69.5136 50.4063C67.4422 51.4206 66.1851 51.7206 63.9851 51.7206C62.6136 51.7206 61.9279 51.6491 61.0565 51.4206C58.7994 50.8206 56.8564 49.6777 55.2564 48.0206C54.1279 46.8634 53.5422 46.0206 52.9136 44.6491C52.2136 43.1349 51.9993 42.1491 51.8279 39.792C51.6707 37.392 51.3564 36.0349 50.6422 34.4777C49.385 31.7634 47.1422 29.6063 44.2993 28.3491C42.4707 27.5491 39.6707 27.2206 37.585 27.5634Z" fill="#FAFAFA"/>
<path d="M77.5566 61.1777C73.2709 61.9491 69.7566 63.7634 66.7709 66.7634C63.9851 69.5349 62.1423 72.9491 61.3137 76.8349C60.9852 78.3634 60.9566 82.8063 61.2566 84.3349C62.828 92.4063 69.0137 98.6063 77.0851 100.221C78.8566 100.563 82.7423 100.563 84.4137 100.221C92.528 98.5063 98.3566 92.7491 100.157 84.6777C100.585 82.7491 100.614 79.0349 100.228 77.0777C98.6566 69.192 92.8423 63.2063 84.9851 61.3777C83.3994 61.0063 79.128 60.892 77.5566 61.1777Z" fill="#FAFAFA"/>
</g>
<defs>
<clipPath id="clip0_101_37">
<rect width="128" height="128" fill="white"/>
</clipPath>
</defs>
</svg>
